<?xml version="1.0" encoding="UTF-8"?>
<svg version="1.1" xmlns="http://www.w3.org/2000/svg" width="1254" height="1254">
<path d="M0 0 C413.82 0 827.64 0 1254 0 C1254 413.82 1254 827.64 1254 1254 C840.18 1254 426.36 1254 0 1254 C0 840.18 0 426.36 0 0 Z " fill="#FDFDFD" transform="translate(0,0)"/>
<path d="M0 0 C1.57889685 0.89416609 3.15834448 1.78736017 4.73828125 2.6796875 C9.16579988 5.18968146 13.57797901 7.72566175 17.98779297 10.26660156 C23.01152138 13.15754594 28.04373233 16.03365717 33.07614136 18.90945435 C34.27751007 19.59603519 35.47878335 20.28278302 36.67996216 20.96969604 C44.68784697 25.54909303 52.71168528 30.09918523 60.75 34.625 C69.55613835 39.58543908 78.29318373 44.65680881 87.01391602 49.765625 C95.77196279 54.8877058 104.59713431 59.8850574 113.4375 64.86328125 C119.54459038 68.30274888 125.63332514 71.77378819 131.71313477 75.26123047 C136.2295485 77.85087256 140.7525474 80.42763132 145.29042053 82.97953796 C147.78859324 84.38539605 150.28375428 85.79655424 152.77871704 87.20809937 C153.98631818 87.88957692 155.19523384 88.56873166 156.40560913 89.24526978 C173.06120011 98.55843463 188.41929022 108.70602831 195.23023415 127.37146473 C198.47012015 139.35202449 198.55322078 150.9216008 198.48583984 163.27416992 C198.48799001 165.58053299 198.49187407 167.88689498 198.49734497 170.19325256 C198.50697422 176.41209642 198.4918164 182.63064971 198.47143888 188.84945846 C198.45376751 195.38029211 198.45739489 201.91111813 198.4581604 208.44197083 C198.45699939 219.40236076 198.43910101 230.36264486 198.41162109 241.32299805 C198.38343412 252.57139094 198.36928072 263.81968653 198.37060547 275.06811523 C198.37068538 275.76149237 198.37076529 276.45486951 198.37084763 277.16925808 C198.37092834 277.86150454 198.37100905 278.553751 198.3710922 279.26697463 C198.37254583 292.77196698 198.35855109 306.27690569 198.34019899 319.78188539 C198.33594913 323.65736396 198.3345184 327.53283497 198.33372116 331.40831566 C198.33170326 337.50943975 198.31942035 343.61046288 198.29938889 349.71155357 C198.29357793 351.9427173 198.29108018 354.17389264 198.29224396 356.40506363 C198.29686292 370.6585378 198.08053094 384.25088341 193.375 397.875 C193.11702637 398.63039063 192.85905273 399.38578125 192.59326172 400.1640625 C186.3396782 417.75526382 175.78452165 434.32519642 159.375 443.875 C158.61993164 444.32568848 157.86486328 444.77637695 157.08691406 445.24072266 C154.39842264 446.83955636 151.69975826 448.42026807 149 450 C147.31286465 450.99249106 145.62573687 451.98499504 143.93881226 452.97784424 C138.36039612 456.26002618 132.77569116 459.53136858 127.1875 462.796875 C112.05583692 471.63977528 96.99198219 480.5924481 81.97045898 489.62109375 C74.06322708 494.37072942 66.12479462 499.0638189 58.16699219 503.72802734 C44.70952301 511.62724032 31.29447189 519.59896555 17.875 527.5625 C17.18727509 527.97048828 16.49955017 528.37847656 15.79098511 528.79882812 C9.11244592 532.7614392 2.43682559 536.72807106 -4.2109375 540.7421875 C-5.11956543 541.29060303 -6.02819336 541.83901855 -6.96435547 542.40405273 C-8.58228195 543.38250413 -10.19865952 544.3635245 -11.81298828 545.34790039 C-34.87916158 559.30515565 -61.89290466 563.40665371 -88.2590332 557.24926758 C-98.49666181 554.45072102 -107.81152089 550.24517651 -117 545 C-117.98049316 544.44570313 -118.96098633 543.89140625 -119.97119141 543.3203125 C-130.83864558 537.16138465 -141.63422176 530.87908246 -152.32080078 524.41113281 C-161.09943534 519.10630491 -169.98970926 513.98866647 -178.85498047 508.83056641 C-183.90555175 505.89086889 -188.95264746 502.94521931 -194 500 C-195.99998228 498.83330295 -197.9999823 497.66663633 -200 496.5 C-212 489.5 -212 489.5 -214.99951172 487.75024414 C-217.00109211 486.58268272 -219.00271977 485.41520236 -221.00439453 484.24780273 C-225.98060392 481.34548584 -230.95600455 478.44180084 -235.9296875 475.53515625 C-237.91142255 474.3775429 -239.89319342 473.21999088 -241.875 472.0625 C-242.85259277 471.49120361 -243.83018555 470.91990723 -244.83740234 470.33129883 C-250.14532183 467.23364034 -255.46380339 464.15573781 -260.796875 461.1015625 C-290.42917216 444.1299543 -314.70010028 428.16190535 -324.9921875 394.046875 C-327.20242235 385.63163837 -328.29784139 377.42169652 -328.26742554 368.72927856 C-328.27195665 367.75716679 -328.27648776 366.78505501 -328.28115618 365.78348529 C-328.2937144 362.5588949 -328.2921854 359.33447526 -328.29052734 356.10986328 C-328.29651785 353.78453354 -328.30332459 351.45920579 -328.31088257 349.13388062 C-328.328494 342.8404607 -328.33323583 336.54709523 -328.33451414 330.25365305 C-328.33593876 326.31684082 -328.34021418 322.3800423 -328.34550858 318.44323349 C-328.36303866 305.40373756 -328.37235083 292.36427572 -328.37084763 279.32476796 C-328.37076772 278.62349785 -328.3706878 277.92222775 -328.37060547 277.19970703 C-328.37052371 276.49757127 -328.37044195 275.7954355 -328.37035771 275.0720229 C-328.36954485 263.6938946 -328.38868862 252.31589867 -328.4168822 240.93780865 C-328.44566895 229.22706972 -328.45941941 217.51639525 -328.45769465 205.80562007 C-328.45718582 199.24198715 -328.46282582 192.67850425 -328.48405075 186.1149025 C-328.50347306 179.94074639 -328.50353005 173.76688289 -328.48901749 167.59271622 C-328.48693345 165.33413259 -328.49160591 163.07553045 -328.5037384 160.81697845 C-328.59890755 141.86497277 -326.49259974 125.8502185 -312.9375 111.3125 C-300.62098795 99.83482017 -284.27452122 92.28845587 -269.76147461 84.0057373 C-266.86575959 82.35239038 -263.9721011 80.69545074 -261.078125 79.0390625 C-253.46495287 74.68377935 -245.84727612 70.33640593 -238.22924805 65.98962402 C-234.11078415 63.63958343 -229.99264275 61.2889791 -225.875 58.9375 C-225.29445862 58.60597931 -224.71391724 58.27445862 -224.11578369 57.93289185 C-215.73122469 53.14373456 -207.36086157 48.3304097 -199 43.5 C-186.54420372 36.30378001 -174.05688966 29.16343187 -161.56298828 22.03369141 C-157.35363103 19.63138219 -153.14544149 17.22703075 -148.93777466 14.82176208 C-145.97238353 13.12667504 -143.00643918 11.43257597 -140.0390625 9.7409668 C-134.7013714 6.6962009 -129.37149684 3.64033489 -124.06640625 0.5390625 C-83.1146573 -23.33895173 -41.2341333 -23.75832298 0 0 Z " fill="#285F50" transform="translate(687,200)"/>
<path d="M0 0 C1.18102848 0.66955687 2.36259836 1.33815957 3.54467773 2.00585938 C5.91115571 3.34523381 8.27380963 4.69096067 10.6328125 6.04345703 C13.56333137 7.72304963 16.49892734 9.393149 19.4375 11.05859375 C30.03908553 17.0793472 40.58499789 23.19735426 51.14038086 29.29858398 C58.25801532 33.40739309 65.4000887 37.46983315 72.5625 41.5 C81.41346177 46.48105083 90.19508023 51.57235845 98.95751953 56.70727539 C105.74954512 60.6803956 112.57871812 64.58090225 119.4375 68.4375 C130.45046374 74.63371326 141.37773828 80.96920561 152.26855469 87.37744141 C154.69272468 88.79442332 157.12800746 90.1888145 159.5703125 91.57421875 C167.44382332 96.08226621 174.1760535 100.24839432 177.9375 108.9375 C178.68472676 112.7598523 178.70827708 116.38832569 176.94970703 119.92285156 C172.66449187 125.8417576 167.66298621 128.96756113 161.3125 132.4375 C160.26707031 133.02789062 159.22164062 133.61828125 158.14453125 134.2265625 C155.90587709 135.48993522 153.66323204 136.74625792 151.41699219 137.99609375 C147.92444264 139.94478544 144.44717891 141.91888331 140.9765625 143.90625 C140.39836761 144.23733765 139.82017273 144.56842529 139.22445679 144.9095459 C138.05169837 145.58127644 136.87899952 146.25311098 135.70635986 146.92504883 C133.92694129 147.94354354 132.14608674 148.95948056 130.36474609 149.97460938 C122.86267311 154.25092855 115.38932411 158.57410525 107.9375 162.9375 C99.3423271 167.9693979 90.71437778 172.94139124 82.0625 177.875 C69.74750615 184.89768534 57.46078009 191.96817159 45.18603516 199.06103516 C40.73630637 201.63135046 36.28472765 204.19845109 31.83276367 206.76489258 C29.63029057 208.03545706 27.42861506 209.30740526 25.2277832 210.58081055 C20.32319122 213.41762984 15.41285709 216.24034493 10.46875 219.0078125 C-6.21300729 228.38298894 -18.30785111 238.4057356 -27.375 255.625 C-27.68848389 256.19871338 -28.00196777 256.77242676 -28.32495117 257.36352539 C-35.41829259 271.62036424 -35.64032177 287.25744608 -35.56079102 302.79980469 C-35.56462305 304.94195939 -35.57024959 307.08411151 -35.57751465 309.22625732 C-35.58938014 313.80251221 -35.58904284 318.3785373 -35.57892036 322.95479584 C-35.56325814 330.19107715 -35.57710439 337.42712576 -35.59495544 344.66339111 C-35.62564763 358.70066819 -35.62727965 372.73787256 -35.62530518 386.775177 C-35.62390802 404.68657294 -35.63421132 422.59791398 -35.6738829 440.509269 C-35.68882073 447.7042234 -35.68854495 454.8989693 -35.67640507 462.09392691 C-35.67170325 466.55846054 -35.67919854 471.02291381 -35.68994904 475.48743439 C-35.69235975 477.55909787 -35.68960376 479.63077468 -35.68134117 481.7024231 C-35.67074821 484.52666181 -35.67844942 487.35028106 -35.69068909 490.17449951 C-35.68311303 490.996566 -35.67553698 491.81863248 -35.66773134 492.66561007 C-35.71010665 497.26614489 -36.15429716 500.30751465 -39.0625 503.9375 C-42.82453011 506.44552007 -45.88570241 506.31996752 -50.25 506.3125 C-51.39650024 506.31443359 -51.39650024 506.31443359 -52.56616211 506.31640625 C-58.33919849 506.20786503 -62.22024672 505.2343533 -67.0625 501.9375 C-66.64291016 501.10605469 -66.64291016 501.10605469 -66.21484375 500.2578125 C-60.4355547 488.62087116 -55.8999261 477.45408986 -55.92878723 464.31773376 C-55.9253889 463.17858933 -55.9253889 463.17858933 -55.92192191 462.01643187 C-55.91559994 459.47570141 -55.91641013 456.93502455 -55.91723633 454.39428711 C-55.9142436 452.57067801 -55.91084081 450.74706955 -55.90705872 448.92346191 C-55.89822329 443.9706275 -55.89588071 439.01781036 -55.89524293 434.06496882 C-55.89453184 430.96742432 -55.89239634 427.86988419 -55.88974571 424.77234077 C-55.88049182 413.95637865 -55.87641063 403.14042884 -55.87719727 392.32446289 C-55.87779716 382.25952318 -55.86726271 372.19463721 -55.8514536 362.12971109 C-55.8383499 353.47726247 -55.8330146 344.82483134 -55.83365268 336.17237288 C-55.83390695 331.00992002 -55.83109501 325.84751488 -55.82047462 320.68507195 C-55.81074669 315.82348322 -55.81074649 310.96198733 -55.81799126 306.1003952 C-55.81903148 304.32355424 -55.81670791 302.54670736 -55.8106308 300.76987648 C-55.76909188 287.7747747 -56.54961341 275.72816061 -61.1875 263.4375 C-61.49171875 262.62434326 -61.7959375 261.81118652 -62.109375 260.97338867 C-64.87457045 253.88968294 -68.37199293 247.95338081 -73.0625 241.9375 C-73.59230469 241.215625 -74.12210938 240.49375 -74.66796875 239.75 C-83.79721525 228.20882911 -98.59655721 221.69847998 -111.19140625 214.74609375 C-117.59636596 211.20938228 -123.95297259 207.59230237 -130.29821777 203.95013428 C-140.82388931 197.90877897 -151.38464887 191.93329044 -161.98046875 186.015625 C-168.85307561 182.17710794 -175.7125013 178.31620972 -182.5625 174.4375 C-193.64397688 168.1650737 -204.75227284 161.94114653 -215.86572266 155.72558594 C-224.3451649 150.98269339 -232.82196774 146.23508797 -241.29785156 141.48583984 C-243.80978391 140.07903351 -246.32271979 138.67403949 -248.8359375 137.26953125 C-252.58588678 135.17239109 -256.32480895 133.05640232 -260.0625 130.9375 C-261.05765625 130.38707031 -262.0528125 129.83664062 -263.078125 129.26953125 C-268.12562801 126.3989484 -272.16461943 124.05708901 -275.0625 118.9375 C-276.04983239 114.27986678 -276.5063799 110.2194278 -273.87084961 106.05419922 C-269.00295062 99.93442816 -262.90501646 96.51338235 -256.125 92.8125 C-254.37742732 91.83261586 -252.62986801 90.85270626 -250.88337708 89.87089539 C-249.10063452 88.87057305 -247.31456954 87.87636804 -245.52832031 86.88232422 C-240.3087387 83.9533874 -235.15683062 80.91256753 -230 77.875 C-220.87081151 72.5266473 -211.66257929 67.33253675 -202.41772461 62.18725586 C-195.24870687 58.18785132 -188.14153835 54.09386123 -181.0625 49.9375 C-171.838149 44.52299301 -162.54235528 39.25119306 -153.20043945 34.04248047 C-146.69746281 30.41590821 -140.2117288 26.76207785 -133.75 23.0625 C-132.91919922 22.58683594 -132.08839844 22.11117187 -131.23242188 21.62109375 C-128.50872349 20.06057721 -125.7856049 18.49905192 -123.0625 16.9375 C-114.80616121 12.20512001 -106.54574171 7.48007766 -98.27636719 2.77050781 C-96.26229488 1.62179505 -94.24968768 0.47050545 -92.23925781 -0.68457031 C-61.11840299 -18.56401478 -31.31938359 -18.0331446 0 0 Z " fill="#FCFCFC" transform="translate(672.0625,225.0625)"/>
<path d="M0 0 C7.2672281 0.04893756 12.18602118 2.96020522 18.3125 6.625 C20.35990354 7.81643444 22.40811456 9.00648211 24.45703125 10.1953125 C25.52518066 10.81954102 26.59333008 11.44376953 27.69384766 12.08691406 C33.25222604 15.30323757 38.87816846 18.39638528 44.5 21.5 C53.79343109 26.64905428 63.05835498 31.84514602 72.29907227 37.08813477 C78.51117949 40.60766786 84.74733795 44.08114215 90.99609375 47.53515625 C101.72530393 53.46605904 112.37090513 59.51095407 122.93676758 65.72802734 C130.4353845 70.12545219 138.01413816 74.36288423 145.625 78.5625 C148.99774873 80.43434538 152.36888284 82.30904238 155.73876953 84.18603516 C157.88065241 85.37739538 160.02479565 86.56470264 162.17138672 87.74755859 C176.86206812 95.87794206 189.83524216 103.45983839 196 120 C196.24523438 120.5983988 196.49046877 121.1967976 196.7431345 121.8133297 C199.85227671 130.45340509 199.42930726 139.31149616 199.40405273 148.35791016 C199.40976243 150.20845449 199.416729 152.05899531 199.42485046 153.90953064 C199.44272641 158.91143342 199.44162451 163.91316024 199.43590808 168.91508532 C199.43280952 173.09765322 199.43891579 177.28018766 199.44494683 181.46275079 C199.45897088 191.33001346 199.45744718 201.19718949 199.44604492 211.06445312 C199.43455332 221.2336045 199.44866176 231.40249245 199.4754414 241.57160914 C199.49760598 250.31668057 199.50423442 259.06166935 199.49836498 267.80676687 C199.49499755 273.0238364 199.497397 278.24073692 199.51461601 283.45778275 C199.53009614 288.36139029 199.52611769 293.26460736 199.50731087 298.16819954 C199.5036286 299.96446089 199.50672287 301.76075126 199.51719666 303.55698586 C199.53043291 306.0151328 199.51883708 308.47199181 199.50120544 310.93008423 C199.51561295 311.98798218 199.51561295 311.98798218 199.53031152 313.0672518 C199.42901368 319.96326126 196.82336327 324.91615626 192.375 330 C187.73543631 332.74937108 184.28909003 332.9219596 179 332 C174.42560921 330.06249977 170.28289723 327.54544494 166.0625 324.9375 C164.95970703 324.28072266 163.85691406 323.62394531 162.72070312 322.94726562 C159.46073403 320.99513074 156.2267867 319.00643762 153 317 C151.43330566 316.03018188 151.43330566 316.03018188 149.83496094 315.04077148 C140.06604428 308.9227587 134.40092575 302.29304686 131.12362671 290.97291565 C129.20911851 282.56400761 128.59168911 274.48885889 128.65044022 265.89408684 C128.66445297 263.65237831 128.65758834 261.41152776 128.64559937 259.16981506 C128.61498657 252.80919032 128.61963632 246.44878728 128.63964844 240.08813477 C128.65056817 236.16844037 128.63739368 232.2494077 128.60975266 228.32980537 C128.60432837 226.84629284 128.6083345 225.36271341 128.62215042 223.87925529 C128.64121989 221.81191156 128.62979896 219.74674988 128.61181641 217.67944336 C128.61420319 216.5069957 128.61658997 215.33454803 128.61904907 214.12657166 C127.81684982 210.07498099 126.13215758 208.59729667 123 206 C120.11138291 204.55569145 118.20352299 204.62311494 115 205 C112.16588845 207.333492 112.16588845 207.333492 110 210 C109.67 210.33 109.34 210.66 109 211 C108.87507611 213.43299787 108.81398493 215.83904923 108.79467773 218.27368164 C108.78477814 219.03460617 108.77487854 219.7955307 108.76467896 220.57951355 C108.73297376 223.1063623 108.7082711 225.63322988 108.68359375 228.16015625 C108.66303199 229.90751141 108.64203574 231.65486151 108.62062073 233.40220642 C108.56531959 238.01026318 108.51594592 242.61836541 108.46777344 247.22650146 C108.41761697 251.92513089 108.36190042 256.62369394 108.30664062 261.32226562 C108.19896076 270.54812044 108.09753777 279.77403278 108 289 C103.82220511 288.25655105 100.86445294 287.00278122 97.17578125 284.8671875 C96.06396484 284.22523438 94.95214844 283.58328125 93.80664062 282.921875 C93.23147705 282.58478516 92.65631348 282.24769531 92.0637207 281.90039062 C90.33987059 280.89102628 88.60845567 279.89461748 86.87695312 278.8984375 C63.12015197 265.09621527 63.12015197 265.09621527 59 251 C56.96930667 242.76836111 56.72879807 234.64599958 56.75617027 226.21127701 C56.76184591 223.95731277 56.7524766 221.70384746 56.7389679 219.44992065 C56.70215261 213.0508966 56.68335213 206.65205723 56.69458008 200.25292969 C56.7004346 196.31720416 56.68217426 192.38219937 56.64869118 188.44662094 C56.64075744 186.95475148 56.64198674 185.46280306 56.65271568 183.97095108 C56.66706674 181.88885047 56.65076019 179.80902598 56.62768555 177.72705078 C56.62705612 176.5455545 56.6264267 175.36405823 56.6257782 174.14675903 C55.81774433 170.08351763 54.1434956 168.60408117 51 166 C48.11138291 164.55569145 46.20352299 164.62311494 43 165 C40.42714276 167.172635 38.51003081 168.97993838 37 172 C36.87808779 174.37924562 36.81441706 176.73123317 36.79467773 179.11181641 C36.78477814 179.84362625 36.77487854 180.5754361 36.76467896 181.329422 C36.73303801 183.75343568 36.70829634 186.17746898 36.68359375 188.6015625 C36.66302646 190.28022782 36.64203005 191.95888793 36.62062073 193.63754272 C36.56537682 198.05981231 36.51597779 202.48212881 36.46777344 206.90447998 C36.41757533 211.41552922 36.36188045 215.92651018 36.30664062 220.4375 C36.1990307 229.29160836 36.09759203 238.14577596 36 247 C25.48432495 245.14694494 15.78463844 236.94238212 9.4375 228.5625 C-1.11239505 212.78517947 -2.3025451 196.25179463 -2.25878906 177.88256836 C-2.26150295 175.96303169 -2.26506611 174.04349607 -2.26940918 172.1239624 C-2.27848262 166.94073426 -2.27501131 161.75758623 -2.26865101 156.57435679 C-2.26357141 151.14474831 -2.26828729 145.71514648 -2.27142334 140.28553772 C-2.27505448 131.17935966 -2.27028335 122.07321413 -2.26074219 112.96704102 C-2.24982985 102.43030231 -2.25340675 91.89364084 -2.264395 81.35690397 C-2.27345713 72.30533909 -2.27475932 63.25379751 -2.26951766 54.20222956 C-2.26639581 48.79762253 -2.26599511 43.3930519 -2.27259064 37.98844719 C-2.27834886 32.91668429 -2.27439534 27.84502167 -2.26280212 22.77326965 C-2.26014861 20.90837331 -2.26093234 19.04346857 -2.26532745 17.17857552 C-2.27075645 14.64208235 -2.26398164 12.1059149 -2.25396729 9.56944275 C-2.25842873 8.82403683 -2.26289017 8.07863091 -2.26748681 7.31063694 C-2.22830213 2.22830213 -2.22830213 2.22830213 0 0 Z " fill="#FCFDFC" transform="translate(389,378)"/>
<path d="M0 0 C0.093638 25.40924152 0.1640744 50.81845701 0.20724869 76.22783661 C0.22783232 88.02711268 0.25587234 99.82628124 0.30175781 111.62548828 C0.34175444 121.91535693 0.3674633 132.20514768 0.37635398 142.49509192 C0.38154706 147.93840021 0.39366444 153.38148573 0.42292023 158.82472229 C0.45029235 163.95962783 0.4584014 169.09422116 0.45243073 174.22919273 C0.45352129 176.10273123 0.46134419 177.97628136 0.4768219 179.84975624 C0.63022105 199.39455592 -2.40102703 217.90687343 -16.41796875 232.6640625 C-27.84280936 243 -27.84280936 243 -33 243 C-33.00586624 241.8334639 -33.01173248 240.6669278 -33.01777649 239.46504211 C-33.07498032 228.47350351 -33.14772983 217.48216319 -33.23571491 206.49082661 C-33.28044937 200.84000892 -33.31969885 195.18926385 -33.34643555 189.53833008 C-33.37243763 184.08523451 -33.41281842 178.63241791 -33.46318626 173.17949486 C-33.47987587 171.09872087 -33.49137708 169.01789861 -33.49761391 166.93706703 C-33.50723208 164.023258 -33.53526445 161.11016605 -33.56762695 158.1965332 C-33.56619186 157.33554016 -33.56475677 156.47454712 -33.5632782 155.58746338 C-33.65358042 149.84152201 -34.63113074 146.36886926 -38.8125 142.1875 C-41.8527265 140.53709133 -43.57949832 140.45271973 -47 141 C-49.81512327 142.64596534 -52.42303487 144.54298299 -53.66009521 147.66694641 C-54.16513088 151.13343271 -54.13559288 154.58419142 -54.12597656 158.07885742 C-54.1278447 158.89094162 -54.12971283 159.70302582 -54.13163757 160.53971863 C-54.1356383 162.30319591 -54.13771611 164.06667836 -54.13809967 165.83016014 C-54.14153248 169.60278117 -54.16293016 173.37523257 -54.18333054 177.14779377 C-54.22119158 184.1632477 -54.25263315 191.17852392 -54.25048828 198.1940918 C-54.24969318 203.08138408 -54.2734086 207.96805807 -54.3123703 212.85518837 C-54.32271878 214.70276407 -54.32443819 216.55041216 -54.31671906 218.39800072 C-54.26075913 233.29379322 -55.29559865 250.45730215 -66 262 C-72.31272181 267.61041133 -79.9284574 271.76722001 -87.14624023 276.08813477 C-89.19848748 277.31909039 -91.24284382 278.5624857 -93.28710938 279.80664062 C-94.6011035 280.59711765 -95.91554123 281.38685785 -97.23046875 282.17578125 C-97.83577927 282.54552567 -98.44108978 282.91527008 -99.06474304 283.29621887 C-102.33643181 285.23803213 -105.18265817 286.64584059 -109 287 C-110 286 -110 286 -110.12469864 283.22034836 C-110.12463633 281.33995298 -110.12463633 281.33995298 -110.12457275 279.42156982 C-110.1259829 278.72595577 -110.12739305 278.03034173 -110.12884593 277.31364846 C-110.13251768 274.96526397 -110.12915437 272.61693916 -110.12597656 270.26855469 C-110.12737045 268.59181165 -110.12926918 266.91506897 -110.13163757 265.23832703 C-110.13614415 261.61841295 -110.13799087 257.99851025 -110.13809967 254.37859344 C-110.13923715 248.65586964 -110.15205472 242.93321077 -110.16766357 237.21051025 C-110.17023643 236.24585335 -110.17280928 235.28119644 -110.1754601 234.2873075 C-110.180727 232.31423437 -110.18601248 230.34116128 -110.19131613 228.36808825 C-110.22646249 215.03916486 -110.2529779 201.71032118 -110.25048828 188.38134766 C-110.24890068 179.39893729 -110.26491392 170.4167472 -110.30119491 161.43440747 C-110.31967675 156.67835439 -110.32897873 151.92266915 -110.31671906 147.16658783 C-110.30529616 142.69144043 -110.31695332 138.21695157 -110.34635353 133.74189186 C-110.3530036 132.09919488 -110.35111103 130.45643781 -110.34005547 128.81376457 C-110.32621055 126.57050826 -110.343043 124.32948341 -110.36749268 122.08636475 C-110.36969252 120.20370722 -110.36969252 120.20370722 -110.3719368 118.2830162 C-111.16557643 114.13449778 -112.81769333 112.67352715 -116 110 C-116.33 109.67 -116.66 109.34 -117 109 C-122.12195137 108.3933482 -122.12195137 108.3933482 -126.828125 110.046875 C-128.98887625 111.83001923 -130.73873094 113.47746188 -132 116 C-132.09565751 118.14321656 -132.12464693 120.28949475 -132.12457275 122.43484497 C-132.12668798 123.4372792 -132.12668798 123.4372792 -132.12884593 124.45996463 C-132.13251009 126.71047256 -132.12915744 128.9609179 -132.12597656 131.21142578 C-132.12737096 132.82120818 -132.12927003 134.43099022 -132.13163757 136.04077148 C-132.13614194 139.51549703 -132.13799083 142.99021073 -132.13809967 146.46493912 C-132.13924006 151.97233315 -132.15208207 157.47966012 -132.16766357 162.98703003 C-132.17023643 163.91699834 -132.17280928 164.84696665 -132.1754601 165.80511582 C-132.1807273 167.70752594 -132.18601278 169.60993601 -132.19131613 171.51234603 C-132.22637906 184.33490069 -132.2529887 197.15737389 -132.25048828 209.97998047 C-132.248893 218.62557179 -132.2650975 227.27093565 -132.30119491 235.9164542 C-132.31955932 240.48672847 -132.32908257 245.05662354 -132.31671906 249.62692642 C-132.30516755 253.93961342 -132.31725014 258.25162612 -132.34635353 262.56422424 C-132.35292161 264.134574 -132.3512541 265.70498695 -132.34005547 267.27531052 C-132.24841024 281.30776409 -134.52482568 297.86122454 -144.48730469 308.60375977 C-150.94019317 314.46780864 -158.40596593 318.58440822 -165.9375 322.875 C-167.94319734 324.02825794 -169.94745037 325.1839789 -171.95106506 326.34085083 C-173.18931244 327.05467144 -174.42904246 327.76592765 -175.6703949 328.47433472 C-178.50380037 330.00446588 -178.50380037 330.00446588 -181 332 C-186.79588336 332.46740995 -186.79588336 332.46740995 -189 332 C-191.59710281 329.51873226 -191.99475736 328.0491258 -192.38031673 324.43626499 C-192.39811162 322.97483327 -192.39933285 321.5131446 -192.38768005 320.051651 C-192.39306559 319.24477874 -192.39845113 318.43790647 -192.40399987 317.60658354 C-192.41832267 314.89910753 -192.41116492 312.19211749 -192.40405273 309.48461914 C-192.40975441 307.54455166 -192.41671787 305.60448753 -192.42485046 303.66442871 C-192.44282897 298.38911939 -192.44160351 293.11397601 -192.43590808 287.83864522 C-192.43281999 283.43068538 -192.43890515 279.02275759 -192.44494683 274.6148023 C-192.45900867 264.20663481 -192.45741973 253.79854934 -192.44604492 243.39038086 C-192.43458904 232.67159882 -192.44859299 221.95306772 -192.4754414 211.23431879 C-192.49764774 202.02220371 -192.50422387 192.8101671 -192.49836498 183.59802717 C-192.49500273 178.10069653 -192.49736054 172.60352636 -192.51461601 167.10621834 C-192.53015938 161.92772248 -192.5260479 156.74959527 -192.50731087 151.57111359 C-192.50364396 149.67859146 -192.50667753 147.7860416 -192.51719666 145.89354515 C-192.59387503 130.94724548 -190.9734441 118.52586019 -182 106 C-181.20142578 104.82050781 -181.20142578 104.82050781 -180.38671875 103.6171875 C-173.56292907 94.82961569 -163.68103708 90.10306093 -154.14013672 84.76367188 C-149.86906544 82.36480553 -145.63188712 79.90895345 -141.39282227 77.45410156 C-138.09842309 75.54711577 -134.79958993 73.64798775 -131.5 71.75 C-125.35984915 68.21321477 -119.24063632 64.64145327 -113.125 61.0625 C-100.88784593 53.90729824 -88.57964209 46.87856628 -76.26367188 39.86035156 C-71.52772977 37.16077954 -66.79506957 34.45547843 -62.0625 31.75 C-60.376322 30.78642348 -58.69012431 29.82288141 -57.00390625 28.859375 C-56.18164551 28.38951172 -55.35938477 27.91964844 -54.51220703 27.43554688 C-46.77734375 23.015625 -46.77734375 23.015625 -44.13647461 21.5065918 C-42.39375868 20.51073107 -40.6510822 19.51480129 -38.90844727 18.51879883 C-34.33574726 15.90539735 -29.76221413 13.29346816 -25.1875 10.68359375 C-24.23552734 10.14025391 -23.28355469 9.59691406 -22.30273438 9.03710938 C-20.48137404 7.99760128 -18.65977284 6.95851504 -16.83789062 5.91992188 C-15.60329102 5.21512695 -15.60329102 5.21512695 -14.34375 4.49609375 C-13.57804688 4.06280762 -12.81234375 3.62952148 -12.0234375 3.18310547 C-10.38033391 2.22238153 -8.7897693 1.1722158 -7.21875 0.09765625 C-4.38683984 -1.30334156 -2.99957417 -0.722292 0 0 Z " fill="#FCFCFC" transform="translate(856,380)"/>
<path d="M0 0 C67.97216274 0 67.97216274 0 84 15 C84.61230469 15.57105469 85.22460938 16.14210938 85.85546875 16.73046875 C97.60597921 28.89600827 100.49245409 44.03210163 100.50195312 60.27783203 C100.20138504 75.90509524 95.08008923 88.90284294 83.921875 100.08203125 C82.00695341 101.81788575 80.04753382 103.42430801 78 105 C76.6696875 106.0828125 76.6696875 106.0828125 75.3125 107.1875 C53.01222572 119.38953687 22.95839802 115 0 115 C0 77.05 0 39.1 0 0 Z " fill="#2B6152" transform="translate(1084,839)"/>
<path d="M0 0 C7.59 0 15.18 0 23 0 C23 37.62 23 75.24 23 114 C15.41 114 7.82 114 0 114 C0 110.7 0 107.4 0 104 C-0.66 104 -1.32 104 -2 104 C-2.23074219 104.59425781 -2.46148437 105.18851563 -2.69921875 105.80078125 C-4.34043237 108.57556584 -6.03992331 109.57051 -8.8125 111.1875 C-9.66457031 111.69667969 -10.51664062 112.20585938 -11.39453125 112.73046875 C-19.03718881 116.45440234 -29.66545404 116.05691138 -37.91796875 114.421875 C-47.47896647 111.07780584 -55.98968457 102.70998544 -61 94 C-62.2231974 91.04795274 -63.15592277 88.07875652 -64 85 C-64.33 84.01 -64.66 83.02 -65 82 C-66.32685812 67.70520318 -65.19534138 56.05478293 -56.75 44.125 C-49.86424776 35.91848925 -40.18479234 30.79470615 -29.5390625 29.6171875 C-18.52639514 29.25885776 -10.50670205 32.1222409 -2 39 C-1.67 39.66 -1.34 40.32 -1 41 C-0.67 27.47 -0.34 13.94 0 0 Z " fill="#2A6151" transform="translate(378,840)"/>
<path d="M0 0 C8.91 0 17.82 0 27 0 C30.08122214 7.39493314 33.15790056 14.79030954 36.1953125 22.203125 C36.58111481 23.14454849 36.96691711 24.08597198 37.3644104 25.05592346 C45.48228676 44.88041162 53.55143976 64.72481608 61.47943115 84.62609863 C62.32431601 86.74494664 63.17151378 88.86287389 64.02105713 90.9798584 C65.20316111 93.92791644 66.37628262 96.8793868 67.546875 99.83203125 C67.89900055 100.70581924 68.2511261 101.57960724 68.61392212 102.47987366 C68.93049774 103.28420334 69.24707336 104.08853302 69.57324219 104.91723633 C69.98905548 105.96129387 69.98905548 105.96129387 70.41326904 107.02644348 C71 109 71 109 71 113 C63.08 113 55.16 113 47 113 C44.48634723 107.97269447 42.22998485 103.31940471 40.25 98.125 C39.82203125 97.01382813 39.3940625 95.90265625 38.953125 94.7578125 C38 92 38 92 38 90 C21.83 90 5.66 90 -11 90 C-11.33 91.98 -11.66 93.96 -12 96 C-12.8671875 98.0546875 -12.8671875 98.0546875 -13.875 99.875 C-15.36183759 102.68106803 -16.60323154 105.45175581 -17.6875 108.4375 C-19 112 -19 112 -20 113 C-21.78071246 113.08726223 -23.5648314 113.10699041 -25.34765625 113.09765625 C-26.42724609 113.09443359 -27.50683594 113.09121094 -28.61914062 113.08789062 C-29.75544922 113.07951172 -30.89175781 113.07113281 -32.0625 113.0625 C-33.20267578 113.05798828 -34.34285156 113.05347656 -35.51757812 113.04882812 C-38.34510351 113.03699747 -41.1725264 113.0205141 -44 113 C-43.49419485 108.84733969 -42.89043589 105.1648351 -41.25 101.3125 C-40.89164062 100.4565625 -40.53328125 99.600625 -40.1640625 98.71875 C-39.77992187 97.8215625 -39.39578125 96.924375 -39 96 C-38.20678935 94.10481214 -37.41518762 92.20895028 -36.625 90.3125 C-36.20347656 89.30445313 -35.78195313 88.29640625 -35.34765625 87.2578125 C-33.10663539 81.84038816 -30.94292121 76.39223593 -28.77490234 70.9453125 C-27.22556319 67.05585617 -25.66911619 63.16923396 -24.11181641 59.28295898 C-23.03687644 56.59915206 -21.9662332 53.91394912 -20.91015625 51.22265625 C-19.26578162 47.04237859 -17.52715041 42.94499802 -15.625 38.875 C-12.90160358 32.96732469 -10.66468824 26.91071087 -8.4140625 20.8125 C-5.81899693 13.78115768 -2.95244886 6.88904734 0 0 Z " fill="#285F4F" transform="translate(136,840)"/>
<path d="M0 0 C63.46202532 0 63.46202532 0 76.16796875 10.8515625 C84.18573384 19.43347737 86.40564839 29.23089403 86.27734375 40.70703125 C85.52160526 49.68009531 82.66696682 58.70742009 76 65 C64.63548511 73.84823392 51.68774646 75.61530113 37.6875 75.25 C33.170625 75.1675 28.65375 75.085 24 75 C24 87.87 24 100.74 24 114 C16.08 114 8.16 114 0 114 C0 76.38 0 38.76 0 0 Z " fill="#296050" transform="translate(567,839)"/>
<path d="M0 0 C23.43 0 46.86 0 71 0 C71 17 71 17 67.4375 21.5625 C65.96893672 22.72189206 64.48987064 23.86811948 63 25 C61.82104335 26.28282949 60.67429189 27.59604218 59.5625 28.9375 C56.18402732 32.87775104 52.53911224 36.49923657 48.8203125 40.1171875 C46.93616102 41.87753339 46.93616102 41.87753339 46 44 C46.969375 44.0825 47.93875 44.165 48.9375 44.25 C55.55720765 45.20334532 62.32650178 48.20019102 67 53 C73.86034473 62.94749986 76.42075214 71.85687005 75 84 C72.73159402 94.19200082 68.5353502 102.75362679 59.61328125 108.55078125 C50.66849681 113.31103545 41.66643991 115.55572373 31.5625 115.4375 C30.64162598 115.42920166 29.72075195 115.42090332 28.77197266 115.41235352 C16.13673093 115.09831646 4.87292592 110.04635894 -4.1875 101.0625 C-4.785625 100.381875 -5.38375 99.70125 -6 99 C-4.64054005 95.93284405 -3.11992465 93.92258958 -0.6875 91.625 C1.64988775 89.37039473 3.79263812 87.10536183 5.8125 84.5625 C6.534375 83.716875 7.25625 82.87125 8 82 C8.66 82 9.32 82 10 82 C10.5775 82.7425 11.155 83.485 11.75 84.25 C15.91297321 89.33807837 20.60139584 91.7412582 27 93 C33.7031474 93.56437135 39.14203087 93.46696132 45 90 C49.12619549 85.76228572 50.76777742 82.02365392 51.4375 76.1875 C51.28720469 71.22775475 49.27866142 67.64761564 46 64 C38.49351697 58.99567798 28.5020369 60.41465778 20 62 C19.29994051 59.92085336 18.61537756 57.83648414 17.9375 55.75 C17.55464844 54.58984375 17.17179688 53.4296875 16.77734375 52.234375 C15.68069844 47.6714488 15.68069844 47.6714488 17 45 C19.2578125 42.484375 19.2578125 42.484375 22.125 39.75 C23.13215714 38.77544749 24.13736319 37.79887463 25.140625 36.8203125 C25.63111328 36.34239258 26.12160156 35.86447266 26.62695312 35.37207031 C29.01482795 32.98589383 31.19521077 30.43291704 33.3671875 27.8515625 C35.46962919 25.46745398 37.75230846 23.24769154 40 21 C20.2 20.505 20.2 20.505 0 20 C0 13.4 0 6.8 0 0 Z " fill="#275F4F" transform="translate(997,840)"/>
<path d="M0 0 C7.93902231 6.55178262 12.56280443 15.18902215 14.5625 25.1875 C14.5625 30.4675 14.5625 35.7475 14.5625 41.1875 C-4.9075 41.1875 -24.3775 41.1875 -44.4375 41.1875 C-41.29647141 48.5165667 -38.54323711 52.65453547 -31.4375 56.1875 C-23.07435585 57.2376233 -14.62261144 57.02612234 -7.4375 52.1875 C-6.40896276 51.2168759 -5.39968926 50.22393226 -4.4375 49.1875 C-0.53832032 50.80287444 2.27543772 53.46674873 5.3125 56.3125 C5.81910156 56.78042969 6.32570313 57.24835938 6.84765625 57.73046875 C8.08969141 58.87876541 9.32661494 60.03258672 10.5625 61.1875 C7.05638165 68.85816269 0.26710289 72.33527992 -7.25805664 75.33911133 C-18.56674543 79.34796793 -32.30816383 78.36655832 -43.4375 74.1875 C-53.77129884 68.69358163 -61.29005375 60.12167649 -65.4375 49.1875 C-68.32305776 36.50574934 -68.06141427 22.13389965 -61.08203125 11.03125 C-54.79731143 2.00012447 -45.73770604 -4.61067685 -35.0078125 -7.45703125 C-22.09080173 -9.24342636 -10.92687291 -7.5536148 0 0 Z " fill="#296050" transform="translate(539.4375,877.8125)"/>
<path d="M0 0 C7.59 0 15.18 0 23 0 C23.33 20.46 23.66 40.92 24 62 C29.81413391 55.6044527 35.37307359 49.44612819 40.69921875 42.703125 C41.83810547 41.36507812 41.83810547 41.36507812 43 40 C43.66165161 39.07465454 43.66165161 39.07465454 44.33666992 38.13061523 C46.99292753 34.845692 48.85656905 33.20602522 53.09204102 32.44287109 C56.73156852 32.31128212 60.29996573 32.38892076 63.9375 32.5625 C65.19369141 32.59408203 66.44988281 32.62566406 67.74414062 32.65820312 C70.83184881 32.74038547 73.91469797 32.8552323 77 33 C74.39298266 37.13526889 71.7345752 40.46757343 68.1875 43.875 C64.57469899 47.41396274 61.14308009 50.99819153 57.875 54.85546875 C56.39874034 56.54394073 54.8653543 58.18247234 53.3125 59.80078125 C52.61543945 60.53276733 52.61543945 60.53276733 51.90429688 61.27954102 C50.55858913 62.6886505 49.20141306 64.08678068 47.84375 65.484375 C45.8293736 67.74453192 45.8293736 67.74453192 45.9140625 69.9609375 C47.50303079 72.94453982 49.64223307 75.36541553 51.875 77.875 C52.88487724 79.03857579 53.89262681 80.20400099 54.8984375 81.37109375 C55.4150293 81.97034668 55.93162109 82.56959961 56.46386719 83.18701172 C60.31431202 87.73141784 63.92278887 92.47427106 67.57666016 97.17675781 C69.08756291 99.11216464 70.61064542 101.03747373 72.13671875 102.9609375 C72.6471875 103.60554932 73.15765625 104.25016113 73.68359375 104.91430664 C74.67021785 106.15959923 75.65844638 107.4036227 76.6484375 108.64624023 C80 112.88790795 80 112.88790795 80 114 C75.68895621 114.29290044 71.38048713 114.46879375 67.0625 114.625 C65.24395508 114.75068359 65.24395508 114.75068359 63.38867188 114.87890625 C54.48733284 115.12013495 54.48733284 115.12013495 50.29736328 111.96459961 C47.98492813 109.41822815 45.97344622 106.81494359 44 104 C43.04215043 102.80401271 42.07950543 101.61182861 41.109375 100.42578125 C40.33078125 99.39839844 39.5521875 98.37101563 38.75 97.3125 C38.12351562 96.49023926 38.12351562 96.49023926 37.484375 95.65136719 C35.263516 92.72434443 33.10313737 89.762435 31 86.75 C29.28769823 83.9520503 29.28769823 83.9520503 27 83 C26.690625 83.639375 26.38125 84.27875 26.0625 84.9375 C25 87 25 87 24 88 C23.84174742 89.99782126 23.74880829 92.00088834 23.68359375 94.00390625 C23.64169922 95.21884766 23.59980469 96.43378906 23.55664062 97.68554688 C23.51732422 98.96494141 23.47800781 100.24433594 23.4375 101.5625 C23.39431641 102.84576172 23.35113281 104.12902344 23.30664062 105.45117188 C23.200152 108.63399853 23.09814038 111.81690674 23 115 C19.35418313 115.02887512 15.70839537 115.04675585 12.0625 115.0625 C10.50112305 115.07506836 10.50112305 115.07506836 8.90820312 115.08789062 C7.91884766 115.09111328 6.92949219 115.09433594 5.91015625 115.09765625 C4.53549194 115.10551147 4.53549194 115.10551147 3.13305664 115.11352539 C1 115 1 115 0 114 C-0.09568576 112.51983606 -0.12188268 111.03511727 -0.12025452 109.55186462 C-0.12162918 108.5912764 -0.12300385 107.63068817 -0.12442017 106.64099121 C-0.12082489 105.57860229 -0.11722961 104.51621338 -0.11352539 103.42163086 C-0.11367142 102.30957779 -0.11381744 101.19752472 -0.1139679 100.05177307 C-0.11326821 96.35611049 -0.1054732 92.66049759 -0.09765625 88.96484375 C-0.09579227 86.41036507 -0.09436827 83.85588603 -0.09336853 81.30140686 C-0.08993344 75.2523829 -0.08204264 69.20338045 -0.07201904 63.15436512 C-0.06085683 56.26934846 -0.05534718 49.38433096 -0.05032361 42.49930751 C-0.03986 28.33285987 -0.02151495 14.16643494 0 0 Z " fill="#2B6252" transform="translate(782,839)"/>
<path d="M0 0 C7.70394283 6.04428702 10.63821404 12.18107076 14.0625 21.3125 C14.0625 27.9125 14.0625 34.5125 14.0625 41.3125 C-5.0775 41.3125 -24.2175 41.3125 -43.9375 41.3125 C-39.92195167 50.59101209 -39.92195167 50.59101209 -32.9375 55.3125 C-26.22552561 57.5498248 -16.63046113 57.65524452 -10.1875 54.5 C-7.71834331 52.83806761 -5.94669535 51.42457584 -3.9375 49.3125 C-0.28608644 50.8380906 1.96368112 53.03730909 4.6875 55.875 C7.57320681 59.00292054 7.57320681 59.00292054 11.0625 61.3125 C8.55931795 67.42682993 2.46223584 71.71836549 -3.38671875 74.4609375 C-15.26863237 78.5358892 -31.30075329 79.77887212 -42.9375 74.3125 C-55.03963724 67.95582185 -61.69240438 58.04778686 -65.9375 45.3125 C-66.22018039 41.79673579 -66.21518232 38.27587015 -66.25 34.75 C-66.27900391 33.79802734 -66.30800781 32.84605469 -66.33789062 31.86523438 C-66.44557349 19.69707091 -61.49515001 11.26518917 -53.31640625 2.59375 C-38.60102928 -11.23941013 -16.20510838 -10.97129635 0 0 Z " fill="#296050" transform="translate(969.9375,877.6875)"/>
<path d="M0 0 C5.19401764 4.25825333 8.61916737 9.07532066 9.5 15.8125 C9.561875 16.9675 9.62375 18.1225 9.6875 19.3125 C10.3475 19.3125 11.0075 19.3125 11.6875 19.3125 C11.6875 38.7825 11.6875 58.2525 11.6875 78.3125 C4.0975 78.3125 -3.4925 78.3125 -11.3125 78.3125 C-11.33828125 74.63996094 -11.3640625 70.96742188 -11.390625 67.18359375 C-11.42906807 63.61572699 -11.47422127 60.04800364 -11.52001953 56.48022461 C-11.54819632 54.00601072 -11.56942715 51.53170737 -11.58349609 49.05737305 C-11.60497022 45.49481513 -11.65164675 41.93332917 -11.703125 38.37109375 C-11.70435364 37.26978622 -11.70558228 36.1684787 -11.70684814 35.03379822 C-11.828933 28.59139022 -12.46065095 24.54730422 -16.3125 19.3125 C-20.97145009 15.52177355 -25.42204358 15.81976036 -31.20703125 15.95703125 C-36.40789487 16.55235023 -38.63395933 18.46031719 -42.125 22.3125 C-44.238612 25.87226757 -44.44563833 29.27289684 -44.51782227 33.35644531 C-44.53776749 34.35718079 -44.55771271 35.35791626 -44.57826233 36.38897705 C-44.60333107 37.99854279 -44.60333107 37.99854279 -44.62890625 39.640625 C-44.64968735 40.74476746 -44.67046844 41.84890991 -44.69187927 42.98651123 C-44.75723646 46.51177783 -44.81619564 50.03711859 -44.875 53.5625 C-44.91819836 55.95313265 -44.96181307 58.34375782 -45.00585938 60.734375 C-45.11368677 66.59367511 -45.2128636 72.45303194 -45.3125 78.3125 C-52.9025 78.3125 -60.4925 78.3125 -68.3125 78.3125 C-68.3125 51.2525 -68.3125 24.1925 -68.3125 -3.6875 C-60.7225 -3.6875 -53.1325 -3.6875 -45.3125 -3.6875 C-44.9825 -1.0475 -44.6525 1.5925 -44.3125 4.3125 C-43.76722656 3.84199219 -43.22195312 3.37148438 -42.66015625 2.88671875 C-30.21029501 -7.39239745 -13.84093999 -9.49462613 0 0 Z " fill="#2A6151" transform="translate(289.3125,875.6875)"/>
<path d="M0 0 C2.31361231 1.97630949 4.06750874 4.2057966 5.90234375 6.625 C3.94995522 8.63112399 1.99096553 10.62992433 0.02734375 12.625 C-0.52824219 13.19734375 -1.08382812 13.7696875 -1.65625 14.359375 C-3.09900029 15.81950782 -4.59509365 17.22649298 -6.09765625 18.625 C-6.75765625 18.625 -7.41765625 18.625 -8.09765625 18.625 C-8.09765625 19.285 -8.09765625 19.945 -8.09765625 20.625 C-10.57660581 19.52324464 -12.42220085 18.358707 -14.53515625 16.625 C-19.95787023 12.39263787 -25.14401559 12.07691412 -31.859375 12.17578125 C-36.82017329 12.86394989 -39.75782111 14.99325125 -43.09765625 18.625 C-47.76715743 24.95142096 -47.79959193 31.99395642 -47.09765625 39.625 C-45.34884449 45.36658078 -40.79549308 49.17683405 -36.09765625 52.625 C-31.64945721 54.84909952 -25.92345426 54.13802292 -21.09765625 53.625 C-16.62528639 51.83743242 -13.41436063 49.0522612 -10.09765625 45.625 C-6.22444532 47.20130677 -3.85030462 49.70247669 -0.97265625 52.6875 C2.1434014 56.08953483 2.1434014 56.08953483 5.90234375 58.625 C2.95028207 65.42368751 -3.44502204 69.65731475 -9.9453125 72.80078125 C-21.15228021 77.09237868 -35.58062864 77.86767185 -46.7421875 72.953125 C-57.4774186 66.90009254 -66.12624416 57.81596239 -69.63745117 45.77368164 C-72.22285109 33.70253857 -71.24192053 21.17491596 -65.1171875 10.5 C-58.34461866 0.85858672 -49.38239744 -6.0538147 -37.76953125 -8.95703125 C-23.48910307 -11.19095788 -11.97133746 -8.08812051 0 0 Z " fill="#296051" transform="translate(767.09765625,879.375)"/>
<path d="M0 0 C32.2972973 0 32.2972973 0 41 7 C49.80542477 15.84329757 52.17711077 23.54691707 52.3125 35.75 C52.34150391 36.6059375 52.37050781 37.461875 52.40039062 38.34375 C52.49826984 48.28225517 48.32287128 56.46098516 41.5 63.625 C28.17529587 72.66676352 16.15192254 70 0 70 C0 46.9 0 23.8 0 0 Z " fill="#FBFCFC" transform="translate(1108,861)"/>
<path d="M0 0 C7.59 0 15.18 0 23 0 C23 37.95 23 75.9 23 115 C15.41 115 7.82 115 0 115 C0 77.05 0 39.1 0 0 Z " fill="#2E6454" transform="translate(870,839)"/>
<path d="M0 0 C0 7.26 0 14.52 0 22 C-2.7225 21.9071875 -2.7225 21.9071875 -5.5 21.8125 C-12.49383432 21.82897546 -17.16981579 22.79874561 -22.8125 27.1875 C-27.9229471 33.75807484 -28.45604005 40.37974141 -28.51171875 48.40625 C-28.52966995 49.3715564 -28.54762115 50.33686279 -28.56611633 51.3314209 C-28.61991198 54.38757068 -28.65401606 57.44356706 -28.6875 60.5 C-28.72070022 62.58335454 -28.75519236 64.66668891 -28.79101562 66.75 C-28.8780316 71.83335166 -28.93836318 76.91602512 -29 82 C-36.26 82 -43.52 82 -51 82 C-51 55.27 -51 28.54 -51 1 C-43.74 1 -36.48 1 -29 1 C-28.67 4.3 -28.34 7.6 -28 11 C-27.278125 10.2575 -26.55625 9.515 -25.8125 8.75 C-17.26313895 0.39062475 -11.78498953 -0.2380806 0 0 Z " fill="#275F4F" transform="translate(467,871)"/>
<path d="M0 0 C7.26 0 14.52 0 22 0 C22 26.73 22 53.46 22 81 C14.74 81 7.48 81 0 81 C0 54.27 0 27.54 0 0 Z " fill="#255D4D" transform="translate(662,872)"/>
<path d="M0 0 C4.83153644 2.87445839 8.42710649 7.13341025 10.5 12.375 C10.80078125 15.6171875 10.80078125 15.6171875 10.8125 19.25 C10.82925781 20.44367187 10.84601563 21.63734375 10.86328125 22.8671875 C10.26491378 28.64497231 8.01081687 32.4047351 3.625 36.125 C2.96757812 36.69734375 2.31015625 37.2696875 1.6328125 37.859375 C-4.25679395 42.0446631 -10.49572447 42.35399658 -17.5 41.375 C-23.06030331 39.25758315 -26.60674099 35.86891224 -29.5625 30.75 C-32.61913396 23.73772209 -32.41549429 16.86532198 -30.5 9.5625 C-23.83917095 -1.05319629 -11.85440806 -5.4625475 0 0 Z " fill="#F9FAFA" transform="translate(367.5,892.625)"/>
<path d="M0 0 C2.375 1.6875 2.375 1.6875 4 4 C4.07628725 8.19579889 3.61560411 10.26882708 0.8984375 13.49609375 C-2.31197543 16.26950977 -5.60615101 17.91878 -9.4375 19.625 C-16.8265716 23.09023159 -22.8695493 27.46126463 -29.109375 32.6796875 C-34.2565831 36.81136535 -37.73561854 37.52519594 -44.29296875 37.3671875 C-46.96470819 37.00478706 -48.48816974 36.58470949 -50.6875 35.0625 C-53.34657545 31.54102171 -53.95383448 29.66946958 -53.64453125 25.33203125 C-52.40534281 20.84842217 -49.32967995 18.09501679 -46 15 C-45.37480469 14.3915625 -44.74960937 13.783125 -44.10546875 13.15625 C-32.82666359 2.68143299 -15.37911135 -7.2449215 0 0 Z " fill="#296152" transform="translate(697,360)"/>
<path d="M0 0 C3.96 -0.0825 7.92 -0.165 12 -0.25 C13.84851563 -0.30462402 13.84851563 -0.30462402 15.734375 -0.36035156 C22.66474865 -0.42992461 27.13568256 0.22763205 33 4 C37.93934286 9.31929231 38.36295268 12.91100944 38.26953125 20.01953125 C37.83357835 24.84028575 36.04540257 27.20567191 32.48046875 30.33300781 C26.14816656 34.95117373 20.08861308 34.5814141 12.5 34.3125 C8.375 34.209375 4.25 34.10625 0 34 C0 22.78 0 11.56 0 0 Z " fill="#F8FAF9" transform="translate(591,860)"/>
<path d="M0 0 C2.42547804 3.37834442 2.40373541 5.369813 1.75 9.4375 C-0.41130909 12.87594627 -3.07872819 13.80286996 -6.75 15.125 C-14.31897173 17.94525014 -20.39887265 23.23257877 -26.5546875 28.35546875 C-32.01727032 32.56746026 -36.49192158 33.08809554 -43.33203125 33.0390625 C-46.88401721 32.3067923 -48.10628565 31.33126098 -50.25 28.4375 C-51.31225777 24.70580226 -51.08138815 21.03968931 -49.28515625 17.578125 C-42.48697673 8.98680248 -30.53432834 0.71545234 -19.6875 -1.1875 C-5.45324092 -2.62175044 -5.45324092 -2.62175044 0 0 Z " fill="#296152" transform="translate(593.25,326.5625)"/>
<path d="M0 0 C3.70693126 1.68496875 5.91514324 3.51718767 8 7 C8.59753479 11.37221395 8.55742195 15.75433757 8.5559082 20.16186523 C8.56245128 22.29660304 8.61688768 24.42663587 8.67382812 26.56054688 C8.81511777 37.97752126 8.81511777 37.97752126 5.15234375 42.41796875 C2.22251901 45.23182411 -0.31549475 45.92394386 -4.375 46.375 C-8 46 -8 46 -10.8125 43.75 C-15.91514148 37.33525072 -15.36658118 31.67274931 -15.375 23.6875 C-15.39949219 22.47642578 -15.42398438 21.26535156 -15.44921875 20.01757812 C-15.47577191 11.93213946 -14.82527543 7.08908753 -9.1875 1.0625 C-5.9625715 -0.50389384 -3.53772048 -0.37239163 0 0 Z " fill="#296152" transform="translate(816,438)"/>
<path d="M0 0 C2.87029869 1.79393668 4.49131638 2.98263276 6 6 C6.28239004 10.4939336 6.31371507 14.99155612 6.35009766 19.49316406 C6.36662195 20.99071837 6.39386606 22.48819495 6.43212891 23.98535156 C6.48718342 26.15210586 6.5088139 28.31701344 6.5234375 30.484375 C6.54325684 31.78084961 6.56307617 33.07732422 6.58349609 34.41308594 C5.81979072 39.10779697 4.32850276 40.67087028 1 44 C-2.29701354 45.64850677 -5.46201361 45.74227532 -9 45 C-11.94952445 43.24784906 -13.51810634 41.07081298 -15 38 C-15.72576023 33.32824485 -15.78126255 28.79332313 -15.67236328 24.07470703 C-15.62494714 21.87254488 -15.63128358 19.67520331 -15.64453125 17.47265625 C-15.55065528 5.5996214 -15.55065528 5.5996214 -11 1 C-7.54260443 -0.72869779 -3.78024432 -0.48966895 0 0 Z " fill="#296050" transform="translate(512,501)"/>
<path d="M0 0 C2.91374087 2.27213899 3.86246984 3.28178693 4.5625 6.9375 C3.79168716 11.1341477 2.36242875 12.40812784 -1 15 C-2.22976563 15.43699219 -3.45953125 15.87398438 -4.7265625 16.32421875 C-9.16919077 17.92285329 -12.62979653 20.29365881 -16.375 23.125 C-22.94238523 27.98514043 -26.6904021 29.92477783 -35 29 C-37.625 27.5 -37.625 27.5 -39 25 C-39.7632504 21.5360174 -40.02580781 20.24934652 -39 17 C-30.06280579 4.63025345 -15.15032869 -2.33691344 0 0 Z " fill="#2A6152" transform="translate(520,310)"/>
<path d="M0 0 C2.2971237 2.08361615 3.53782775 3.80806798 4.62573242 6.70532227 C4.90579636 7.43940811 5.18586029 8.17349396 5.47441101 8.92982483 C5.91053459 10.11118263 5.91053459 10.11118263 6.35546875 11.31640625 C6.66196854 12.12867172 6.96846832 12.94093719 7.28425598 13.77781677 C7.92926816 15.49195689 8.57034988 17.20758044 9.20776367 18.92456055 C10.18628889 21.55923909 11.17702673 24.18906689 12.16992188 26.81835938 C12.79499062 28.48410508 13.41936367 30.15011204 14.04296875 31.81640625 C14.3397905 32.60600235 14.63661224 33.39559845 14.94242859 34.2091217 C17 39.76679664 17 39.76679664 17 42 C6.11 42 -4.78 42 -16 42 C-5.45454545 10.36363636 -5.45454545 10.36363636 0 0 Z " fill="#F2F5F4" transform="translate(149,868)"/>
<path d="M0 0 C3.3234385 2.77986319 4.7492815 4.44837846 5.44506836 8.75439453 C5.60132054 12.03799955 5.58324007 15.27640915 5.5 18.5625 C5.50386719 20.24762695 5.50386719 20.24762695 5.5078125 21.96679688 C5.44062482 27.62064047 5.3691931 31.27853531 2 36 C-1.01757067 38.51464223 -2.54477949 38.99187106 -6.5 39.0625 C-11.15295228 37.64999663 -12.26117425 35.94713123 -15 32 C-16.97962548 28.04074904 -16.27253472 23.10355114 -16.3125 18.75 C-16.34150391 17.71230469 -16.37050781 16.67460937 -16.40039062 15.60546875 C-16.45191169 9.39916187 -16.17740582 5.70836581 -12 1 C-8.58283188 -1.80695953 -3.96669935 -1.65463809 0 0 Z " fill="#2B6152" transform="translate(434,464)"/>
<path d="M0 0 C2.5625 1.625 2.5625 1.625 4.5625 3.625 C5.0625 6.5 5.0625 6.5 4.5625 9.625 C-0.52888392 13.50487992 -6.25963816 16.07427718 -12 18.84375 C-15.32588867 20.56716504 -18.33010166 22.54163066 -21.4375 24.625 C-25.49362239 25.9770408 -29.1970046 26.16080267 -33.4375 25.625 C-36 24.0625 -36 24.0625 -37.4375 21.625 C-38.02311928 17.59886743 -38.04785058 15.51683646 -35.7265625 12.125 C-27.30546115 2.92789273 -12.33086091 -4.93234437 0 0 Z " fill="#296051" transform="translate(611.4375,262.375)"/>
<path d="M0 0 C1.21429687 -0.03738281 2.42859375 -0.07476562 3.6796875 -0.11328125 C7.73119766 0.38741558 9.3324572 1.37928806 12.125 4.3125 C12.75 7.8125 12.75 7.8125 12.125 11.3125 C9.0929867 14.62876454 5.3118821 16.26500018 1.31640625 18.16796875 C-1.93384688 19.86551629 -4.89262743 21.94429263 -7.89453125 24.04296875 C-11.9435103 26.63846814 -16.19369854 26.95127408 -20.875 26.3125 C-24.59506101 24.33374414 -25.61350791 22.99237943 -27.125 19.0625 C-26.80827793 14.311669 -25.36236816 12.59433045 -22.12109375 9.2421875 C-15.37319119 3.44485904 -8.91231247 0.17899993 0 0 Z " fill="#2D6355" transform="translate(681.875,282.6875)"/>
<path d="M0 0 C4.31465002 3.54760113 6.57755104 5.49164553 7.3125 11.1875 C7.04941352 15.82659164 5.5835952 18.59339855 2.8125 22.3125 C-1.50483382 25.2866633 -4.99826076 25.9611549 -10.1875 25.3125 C-14.10756695 23.20169472 -16.84633252 21.09335094 -19.1875 17.3125 C-19.97373141 12.97512337 -20.200656 8.35087339 -18.203125 4.33203125 C-13.28524697 -1.81531628 -7.19947086 -3.81148457 0 0 Z " fill="#2B6253" transform="translate(680.1875,837.6875)"/>
<path d="M0 0 C4.90110802 2.23559313 7.96590136 5.62732843 11 10 C11 11.65 11 13.3 11 15 C-1.21 15 -13.42 15 -26 15 C-23.74693878 7.11428571 -23.74693878 7.11428571 -20 4.125 C-19.29875 3.55007813 -18.5975 2.97515625 -17.875 2.3828125 C-12.69302183 -1.4388964 -6.17510584 -0.49992305 0 0 Z " fill="#EEF3F2" transform="translate(521,889)"/>
<path d="M0 0 C4.7615125 4.63620954 6.23375124 6.46500744 7.375 13.3125 C-4.835 13.3125 -17.045 13.3125 -29.625 13.3125 C-28.67177972 8.54639859 -28.34029591 7.47697106 -25.3125 4.125 C-24.71824219 3.45082031 -24.12398437 2.77664063 -23.51171875 2.08203125 C-17.39989655 -3.65017466 -7.28648129 -3.39198267 0 0 Z " fill="#EEF2F1" transform="translate(955.625,890.6875)"/>
<path d="M0 0 C0.33 0 0.66 0 1 0 C1 54.78 1 109.56 1 166 C1.66 166 2.32 166 3 166 C3 166.66 3 167.32 3 168 C3.66 168.33 4.32 168.66 5 169 C3.35 168.67 1.7 168.34 0 168 C0 112.56 0 57.12 0 0 Z " fill="#DDE7E5" transform="translate(746,498)"/>
<path d="M0 0 C2.11931075 3.17896613 2.2469603 3.92974532 2.22705078 7.56323242 C2.22689972 8.48396042 2.22674866 9.40468842 2.22659302 10.35331726 C2.21627045 11.34402725 2.20594788 12.33473724 2.1953125 13.35546875 C2.1924826 14.37224197 2.18965271 15.3890152 2.18673706 16.43659973 C2.17553383 19.68701908 2.15042886 22.93716381 2.125 26.1875 C2.11497039 28.38996998 2.10584451 30.59244428 2.09765625 32.79492188 C2.07559405 38.19670843 2.04211508 43.59833459 2 49 C4.64 49 7.28 49 10 49 C7 51 7 51 0 51 C0 34.17 0 17.34 0 0 Z " fill="#1C5948" transform="translate(278,902)"/>
<path d="M0 0 C19.14 0 38.28 0 58 0 C58 0.33 58 0.66 58 1 C40.18 1.33 22.36 1.66 4 2 C3.67 2.66 3.34 3.32 3 4 C3.33 4.33 3.66 4.66 4 5 C3.34 5.66 2.68 6.32 2 7 C0.5393715 4.35261084 0 3.10551666 0 0 Z " fill="#C6D4D2" transform="translate(495,919)"/>
<path d="M0 0 C0.99 0.33 1.98 0.66 3 1 C2.03900391 1.94359375 2.03900391 1.94359375 1.05859375 2.90625 C-9.31413106 12.1818336 -9.31413106 12.1818336 -16 24 C-16.99 23.67 -17.98 23.34 -19 23 C-18.53292113 18.65413572 -15.93340749 16.66673739 -12.875 13.75 C-11.87434002 12.78197201 -10.87564764 11.81190609 -9.87890625 10.83984375 C-9.38922363 10.36272949 -8.89954102 9.88561523 -8.39501953 9.39404297 C-5.42035875 6.42146456 -2.70237425 3.21886898 0 0 Z " fill="#30675A" transform="translate(1032,866)"/>
<path d="M0 0 C8.91 0 17.82 0 27 0 C24 3 24 3 21.59570312 3.32470703 C20.66693359 3.30263184 19.73816406 3.28055664 18.78125 3.2578125 C17.76675781 3.24363281 16.75226562 3.22945312 15.70703125 3.21484375 C14.11955078 3.17037109 14.11955078 3.17037109 12.5 3.125 C10.40633443 3.08164761 8.31257872 3.04239925 6.21875 3.0078125 C5.28998047 2.98348145 4.36121094 2.95915039 3.40429688 2.93408203 C0.85344726 2.88767927 0.85344726 2.88767927 -2 4 C-1.34 2.68 -0.68 1.36 0 0 Z " fill="#225F4F" transform="translate(832,872)"/>
<path d="M0 0 C0.33 0.99 0.66 1.98 1 3 C-3.62 7.62 -8.24 12.24 -13 17 C-13.66 16.67 -14.32 16.34 -15 16 C-5.77448747 4.29384966 -5.77448747 4.29384966 0 0 Z " fill="#2C6556" transform="translate(665,454)"/>
<path d="M0 0 C0.33 0.66 0.66 1.32 1 2 C0.30132813 2.12117188 -0.39734375 2.24234375 -1.1171875 2.3671875 C-2.48230469 2.61855469 -2.48230469 2.61855469 -3.875 2.875 C-4.77992188 3.03742188 -5.68484375 3.19984375 -6.6171875 3.3671875 C-9.16505988 3.83044703 -9.16505988 3.83044703 -11 6 C-11 3 -11 3 -9.4375 1.3125 C-6.19368832 -0.43416783 -3.62656715 -0.20922503 0 0 Z " fill="#356B5C" transform="translate(816,438)"/>
<path d="M0 0 C0.99 0.33 1.98 0.66 3 1 C2.01 2.485 2.01 2.485 1 4 C0.34 4 -0.32 4 -1 4 C-1 4.66 -1 5.32 -1 6 C-1.66 6 -2.32 6 -3 6 C-3.33 6.99 -3.66 7.98 -4 9 C-4.99 8.67 -5.98 8.34 -7 8 C-4.69 5.36 -2.38 2.72 0 0 Z " fill="#E8EEED" transform="translate(1173,932)"/>
<path d="M0 0 C-1.73034298 0.73206818 -3.46072703 1.46403959 -5.19140625 2.1953125 C-7.09719754 3.00700819 -7.09719754 3.00700819 -9.1875 4.25 C-11.50419879 5.20863398 -12.64486602 4.68264753 -15 4 C-13.25705322 3.13153169 -11.50531337 2.28069373 -9.75 1.4375 C-8.77546875 0.96183594 -7.8009375 0.48617187 -6.796875 -0.00390625 C-3.90143703 -1.03510273 -2.80033839 -1.11346788 0 0 Z " fill="#437669" transform="translate(731,872)"/>
<path d="M0 0 C3.96 0 7.92 0 12 0 C9 3 9 3 6.51953125 3.07421875 C5.62621094 2.94660156 4.73289062 2.81898438 3.8125 2.6875 C2.46091797 2.50767578 2.46091797 2.50767578 1.08203125 2.32421875 C0.05142578 2.16373047 0.05142578 2.16373047 -1 2 C-0.67 1.34 -0.34 0.68 0 0 Z " fill="#1A5547" transform="translate(847,872)"/>
<path d="M0 0 C-1.49097658 3.7952131 -3.75700849 5.61042731 -7 8 C-7.66 7.34 -8.32 6.68 -9 6 C-7.8803014 4.99406757 -6.7540588 3.9954151 -5.625 3 C-4.68527344 2.1646875 -4.68527344 2.1646875 -3.7265625 1.3125 C-2 0 -2 0 0 0 Z " fill="#2C6556" transform="translate(1155,920)"/>
<path d="M0 0 C0.66 0.33 1.32 0.66 2 1 C0.02 3.31 -1.96 5.62 -4 8 C-4.99 7.67 -5.98 7.34 -7 7 C-4.69 4.69 -2.38 2.38 0 0 Z " fill="#376C5F" transform="translate(487,879)"/>
<path d="M0 0 C0.99 0.33 1.98 0.66 3 1 C0.6875 3.5 0.6875 3.5 -2 6 C-2.99 6 -3.98 6 -5 6 C-3.63016497 2.83884224 -3.0109362 2.0072908 0 0 Z " fill="#2E6759" transform="translate(712,879)"/>
<path d="M0 0 C0.66 0.66 1.32 1.32 2 2 C1.875 4.5 1.875 4.5 1 7 C-0.98 7.99 -0.98 7.99 -3 9 C-2.01 6.03 -1.02 3.06 0 0 Z " fill="#45776B" transform="translate(133,847)"/>
<path d="M0 0 C1.21236328 0.01353516 1.21236328 0.01353516 2.44921875 0.02734375 C3.37154297 0.04474609 3.37154297 0.04474609 4.3125 0.0625 C4.3125 0.3925 4.3125 0.7225 4.3125 1.0625 C0.1928623 2.35493536 -3.35581683 3.32502625 -7.6875 3.0625 C-7.6875 2.4025 -7.6875 1.7425 -7.6875 1.0625 C-4.80538698 0.10179566 -2.98899956 -0.04331883 0 0 Z " fill="#538274" transform="translate(603.6875,260.9375)"/>
<path d="M0 0 C0.66 0.99 1.32 1.98 2 3 C1.125 6.1875 1.125 6.1875 0 9 C-0.99 9 -1.98 9 -3 9 C-2.01 6.03 -1.02 3.06 0 0 Z " fill="#3E7367" transform="translate(125,867)"/>
<path d="M0 0 C0.99 0.33 1.98 0.66 3 1 C0.75 3.5625 0.75 3.5625 -2 6 C-4.3125 5.8125 -4.3125 5.8125 -6 5 C-1.60546875 0.99609375 -1.60546875 0.99609375 0 0 Z " fill="#386F60" transform="translate(535,927)"/>
<path d="M0 0 C3.36720387 1.39332574 4.9859524 2.9789286 7 6 C6.01 6 5.02 6 4 6 C3.34 5.01 2.68 4.02 2 3 C-0.05925139 2.27617533 -0.05925139 2.27617533 -2 2 C-1.34 1.34 -0.68 0.68 0 0 Z " fill="#427466" transform="translate(757,925)"/>
<path d="M0 0 C0.99 0.33 1.98 0.66 3 1 C2.34 1.66 1.68 2.32 1 3 C0.30251417 4.31747324 -0.36959957 5.64914193 -1 7 C-1.66 6.67 -2.32 6.34 -3 6 C-2.42655063 3.13275314 -2.1385485 2.1385485 0 0 Z " fill="#3D6F62" transform="translate(1016,883)"/>
<path d="M0 0 C0.66 0.33 1.32 0.66 2 1 C2 1.66 2 2.32 2 3 C1.360625 3.103125 0.72125 3.20625 0.0625 3.3125 C-0.618125 3.539375 -1.29875 3.76625 -2 4 C-2.33 4.99 -2.66 5.98 -3 7 C-3.99 6.34 -4.98 5.68 -6 5 C-4.02 3.35 -2.04 1.7 0 0 Z " fill="#387162" transform="translate(584,704)"/>
<path d="M0 0 C0.763125 0.309375 1.52625 0.61875 2.3125 0.9375 C4.18789677 1.67893593 6.08684652 2.36228217 8 3 C5.09399739 4.25664978 3.20395416 5 0 5 C0 3.35 0 1.7 0 0 Z " fill="#22584A" transform="translate(1017,897)"/>
<path d="M0 0 C0.99 0 1.98 0 3 0 C3.66 1.98 4.32 3.96 5 6 C4.01 6.495 4.01 6.495 3 7 C2.01 4.69 1.02 2.38 0 0 Z " fill="#306759" transform="translate(316,930)"/>
<path d="M0 0 C0.66 0.66 1.32 1.32 2 2 C0.35 3.65 -1.3 5.3 -3 7 C-3.33 6.01 -3.66 5.02 -4 4 C-2.68 2.68 -1.36 1.36 0 0 Z " fill="#3C7467" transform="translate(813,893)"/>
<path d="M0 0 C1.00289062 0.10183594 2.00578125 0.20367188 3.0390625 0.30859375 C3.80992187 0.39238281 4.58078125 0.47617187 5.375 0.5625 C5.375 0.8925 5.375 1.2225 5.375 1.5625 C3.58491533 1.78401549 1.79281838 1.98932213 0 2.1875 C-0.99773437 2.30351563 -1.99546875 2.41953125 -3.0234375 2.5390625 C-3.88195312 2.54679688 -4.74046875 2.55453125 -5.625 2.5625 C-6.285 1.9025 -6.945 1.2425 -7.625 0.5625 C-4.89657939 -0.80171031 -3.01546682 -0.31557211 0 0 Z " fill="#4E7C70" transform="translate(511.625,887.4375)"/>
<path d="M0 0 C0.33 0 0.66 0 1 0 C1 2.31 1 4.62 1 7 C1.66 7 2.32 7 3 7 C3 7.66 3 8.32 3 9 C3.66 9.33 4.32 9.66 5 10 C3.35 9.67 1.7 9.34 0 9 C0 6.03 0 3.06 0 0 Z " fill="#E8F0EE" transform="translate(746,657)"/>
</svg>
